<?xml version="1.0" encoding="utf-8" ?><svg xmlns="http://www.w3.org/2000/svg" xmlns:xlink="http://www.w3.org/1999/xlink" width="1024" height="1024" viewBox="0 0 1024 1024"><path d="M550.444 108.709C558.106 107.666 585.098 110.478 593.369 111.483C593.47 118.669 594.006 126.057 594.281 133.257C595.649 168.967 597.963 204.963 598.91 240.658L600.923 328C601.12 341.041 600.988 354.094 601.115 367.133C601.182 374.01 601.925 381.3 602.381 388.199C610.633 371.805 610.175 363.157 611.372 344.976L613.871 301.826C616.145 266.029 619.09 230.279 622.703 194.593C623.608 185.023 625.387 161.623 627.688 153.394C634.752 151.408 649.695 148.694 657.256 148.998C668.507 149.45 688.925 155.512 698.971 160.096C698.991 170.002 699.628 179.125 699.894 188.906L702.877 281.253C703.707 317.469 705.01 353.673 706.788 389.855C706.954 393.599 707.216 421.904 708.751 423.827C711.252 422.048 716.019 409.205 716.407 405.491C718.102 389.28 718.736 372.727 719.725 356.465C721.453 328.913 723.602 301.388 726.17 273.901C727.537 260.166 729.292 241.482 731.924 227.944C733.174 227.987 734.042 228.081 735.291 228.237C741.623 229.026 747.915 230.105 754.147 231.471C766.899 234.308 783.368 239.251 795.504 244.74C799.006 246.324 797.919 255.139 798.152 259.021C799.272 277.759 799.373 297.066 800.135 315.804L803.139 399.748C805.738 456.917 806.639 514.15 805.84 571.372C805.578 583.907 804.666 596.306 804.24 609.005C802.147 669.546 797.431 732.841 779.224 790.962C773.358 809.687 735.264 840.815 718.822 852.27C711.069 857.672 697.755 866.352 689.216 870.32C688.281 859.575 685.392 843.93 683.86 832.764C680.934 811.432 678.381 788.693 674.741 767.57C678.573 763.367 688.347 754.783 690.131 749.842C693.65 740.095 695.968 725.615 698.099 715.173C706.396 674.623 712.756 633.701 717.158 592.545C719.963 566.492 721.488 539.648 724.492 513.598C716.478 509.512 706.581 507.506 697.796 506.007C695.243 513.315 692.9 522.481 690.684 530.054L677.493 574.781C675.835 580.393 674.321 586.19 672.25 591.65C671.666 593.19 669.404 593.177 668.068 592.775C666.997 591.423 666.716 590.362 666.834 588.599C667.664 576.207 668.616 563.44 669.49 551.081C671.455 520.613 673.922 490.179 676.89 459.792C667.754 454.975 658.865 453.398 648.838 451.447C646.301 459.153 642.937 474.974 641.066 483.133C636.504 502.7 632.133 522.311 627.951 541.963C626.362 549.241 624.189 559.416 622.265 566.865C621.983 567.956 620.51 568.441 619.455 568.732C617.353 568.369 618.199 568.827 616.737 567.491C616.073 565.849 615.915 564.474 615.981 562.689C617.742 515.107 620.457 466.626 618.846 419.051C609.992 418.785 597.723 420.273 590.093 425.223C587.469 435.361 585.146 449.081 583.207 459.509L571.564 521.621C569.56 532.401 567.647 543.313 565.561 554.079C565.012 556.918 563.997 559.388 561.517 560.954C559.507 561.111 560.451 561.297 558.614 560.253C557.171 552.908 556.591 531.364 555.926 522.933C553.018 486.066 553.204 446.446 547.684 409.952C539.577 409.902 526.647 412.42 519.415 416.251C516.796 437.486 515.354 459.261 513.411 480.574C510.378 511.067 507.542 541.58 504.902 572.11C503.431 589.374 502.324 609.338 500.322 626.359C497.212 627.91 494.452 628.745 491.162 629.838C487.905 625.231 485.207 619.757 481.84 615.3C467.503 596.324 453.229 576.106 437.925 557.923C423.14 560.664 406.615 565.516 392.477 570.548C390.946 571.191 389.3 571.784 387.742 572.376C410.561 621.31 431.01 671.675 456.897 719.36C458.834 722.927 464.458 733.272 467.252 735.314C485.467 748.625 518.825 763.497 539.882 769.659C540.421 752.945 544.772 729.198 544.498 712.199C541.478 706.357 528.797 699.143 525.272 693.929C514.116 677.427 501.916 659.82 492.622 642.408C507.093 629.629 515.627 633.117 528.272 645.458C532.965 650.038 537.479 654.627 541.97 659.451C543.307 653.39 544.165 642.081 544.868 635.38C546.539 618.259 548.763 601.248 551.582 584.28C552.579 578.282 557.938 576.329 563.388 577.584C563.841 577.689 565.914 578.413 566.082 578.883C569.056 587.187 567.588 624.133 570.94 629.715C574.287 625.728 578.813 573.609 583.854 572.625C600.489 569.381 599.015 574.294 598.022 585.906C597.346 593.794 593.831 629.93 595.543 634.736L596.05 634.585C597.897 631.064 599.027 625.79 600.389 621.977C604.24 611.198 607.709 595.383 612.668 585.517L612.984 584.903C617.129 584.877 623.707 585.35 626.792 588.394C627.316 593.016 625.363 601.522 624.78 606.464C623.297 619.01 619.856 634.81 619.868 647.145C621.939 641.967 635.83 611.241 638.736 609.14C642.918 608.552 649.18 611.339 653.355 612.834C647.386 640.911 639.354 670.263 632.096 698.142C629.683 707.407 618.097 718.013 618.707 727.975C619.567 741.999 620.437 755.934 621.43 769.896L624.244 814.277C625.32 830.894 625.846 856.147 628.104 872.186C625.224 873.03 621.975 873.451 619.012 874.017C564.203 884.484 508.396 888.433 452.695 890.002C443.669 890.256 434.711 891.058 425.641 891.019C429.803 876.964 433.063 853.728 436.4 838.25C416.456 829.032 395.358 821.584 375.373 811.834C355.608 802.19 356.878 802.276 344.222 784.656C323.088 755.232 304.068 724.92 284.535 694.462C267.518 667.587 249.697 641.229 231.098 615.424C213.397 591.006 193.688 567.226 175.236 543.369C165.56 530.86 151.983 513.755 143.589 500.657C169.707 487.196 196.423 474.926 223.653 463.885C231.058 460.896 243.373 455.614 250.696 453.816C258.408 457.86 274.598 470.647 281.978 476.227C313.716 500.223 343.321 526.614 373.027 553.037C373.247 537.912 371.371 522.657 371.127 507.53C370.904 493.672 370.01 479.92 369.974 466.056C370.096 391.23 372.889 316.432 378.344 241.805C379.727 221.45 381.552 201.128 383.819 180.853C384.62 174.111 386.115 161.157 387.818 154.812C402.554 141.112 444.499 134.782 464.926 133.857C466.275 139.847 467.024 150.957 467.659 157.246L472.109 203.165C475.906 244.536 479.424 285.932 482.663 327.351C484.234 347.2 485.43 366.901 487.292 386.762C489.086 383.473 493.288 375.855 493.537 372.378C495.288 347.954 496.846 323.261 498.512 298.831C501.695 253.536 505.573 208.293 510.144 163.116C510.916 155.116 513.903 121.746 516.274 116.408C521.187 111.779 542.955 109.424 550.444 108.709Z"/></svg>